<?xml version="1.0" encoding="UTF-8"?>
<!DOCTYPE svg PUBLIC "-//W3C//DTD SVG 1.1//EN" "http://www.w3.org/Graphics/SVG/1.1/DTD/svg11.dtd">
<svg xmlns="http://www.w3.org/2000/svg" version="1.1" width="157px" height="158px" style="shape-rendering:geometricPrecision; text-rendering:geometricPrecision; image-rendering:optimizeQuality; fill-rule:evenodd; clip-rule:evenodd" xmlns:xlink="http://www.w3.org/1999/xlink">
<g><path style="opacity:1" fill="#836ef9" d="M -0.5,-0.5 C 21.1667,-0.5 42.8333,-0.5 64.5,-0.5C 64.5,9.5 64.5,19.5 64.5,29.5C 52.8333,29.5 41.1667,29.5 29.5,29.5C 29.5,62.1667 29.5,94.8333 29.5,127.5C 41.1667,127.5 52.8333,127.5 64.5,127.5C 64.5,137.5 64.5,147.5 64.5,157.5C 42.8333,157.5 21.1667,157.5 -0.5,157.5C -0.5,104.833 -0.5,52.1667 -0.5,-0.5 Z"/></g>
<g><path style="opacity:1" fill="#836ef9" d="M 92.5,-0.5 C 113.833,-0.5 135.167,-0.5 156.5,-0.5C 156.5,52.1667 156.5,104.833 156.5,157.5C 135.167,157.5 113.833,157.5 92.5,157.5C 92.5,147.5 92.5,137.5 92.5,127.5C 103.833,127.5 115.167,127.5 126.5,127.5C 126.5,94.8333 126.5,62.1667 126.5,29.5C 115.167,29.5 103.833,29.5 92.5,29.5C 92.5,19.5 92.5,9.5 92.5,-0.5 Z"/></g>
</svg>
